<svg width="14" height="24" viewBox="0 0 14 24" fill="none" xmlns="http://www.w3.org/2000/svg">
<path d="M11.3667 12.0383C10.2414 13.0134 8.82208 13.5836 7.33501 13.6582C5.84794 13.7328 4.37871 13.3074 3.16151 12.4498C1.94431 11.5923 1.04921 10.352 0.618899 8.92659C0.188586 7.50119 0.247827 5.97277 0.787179 4.58495C1.32653 3.19714 2.31495 2.02982 3.59487 1.26907C4.87479 0.508328 6.37254 0.197948 7.84938 0.387408C9.32621 0.576867 10.6971 1.25526 11.7436 2.31445C12.79 3.37364 13.4518 4.75265 13.6233 6.23167C14.2167 9.24834 14.21 12.8433 12.85 16.065C11.4133 19.465 8.515 22.3317 3.56667 23.6267C3.40732 23.67 3.24095 23.6813 3.0772 23.66C2.91344 23.6387 2.75553 23.5851 2.61259 23.5024C2.46965 23.4197 2.34452 23.3095 2.24443 23.1782C2.14433 23.0468 2.07125 22.8969 2.02941 22.7372C1.98757 22.5774 1.97781 22.411 2.00067 22.2474C2.02354 22.0839 2.07859 21.9265 2.16264 21.7843C2.24669 21.6421 2.35807 21.5181 2.49035 21.4192C2.62264 21.3203 2.7732 21.2487 2.93334 21.2083C7.15167 20.1033 9.42 17.7583 10.5467 15.0917C10.953 14.1144 11.2287 13.0877 11.3667 12.0383Z" fill="white"/>
</svg>
