<svg width="26" height="36" viewBox="0 0 26 36" fill="none" xmlns="http://www.w3.org/2000/svg">
<path d="M8.00001 34.6667H18M8.00001 1.33333H18M1.33334 9.66666C1.33334 8.78261 1.68453 7.93476 2.30965 7.30964C2.93478 6.68452 3.78262 6.33333 4.66668 6.33333H21.3333C22.2174 6.33333 23.0652 6.68452 23.6904 7.30964C24.3155 7.93476 24.6667 8.78261 24.6667 9.66666V26.3333C24.6667 27.2174 24.3155 28.0652 23.6904 28.6903C23.0652 29.3155 22.2174 29.6667 21.3333 29.6667H4.66668C3.78262 29.6667 2.93478 29.3155 2.30965 28.6903C1.68453 28.0652 1.33334 27.2174 1.33334 26.3333V9.66666Z" stroke="white" stroke-width="2" stroke-linecap="round" stroke-linejoin="round"/>
</svg>
