<svg width="40" height="40" viewBox="0 0 40 40" fill="none" xmlns="http://www.w3.org/2000/svg">
<path d="M8 28H12V32C12 33.1 12.9 34 14 34C15.1 34 16 33.1 16 32V26C16 24.9 15.1 24 14 24H8C6.9 24 6 24.9 6 26C6 27.1 6.9 28 8 28ZM12 12H8C6.9 12 6 12.9 6 14C6 15.1 6.9 16 8 16H14C15.1 16 16 15.1 16 14V8C16 6.9 15.1 6 14 6C12.9 6 12 6.9 12 8V12ZM26 34C27.1 34 28 33.1 28 32V28H32C33.1 28 34 27.1 34 26C34 24.9 33.1 24 32 24H26C24.9 24 24 24.9 24 26V32C24 33.1 24.9 34 26 34ZM28 12V8C28 6.9 27.1 6 26 6C24.9 6 24 6.9 24 8V14C24 15.1 24.9 16 26 16H32C33.1 16 34 15.1 34 14C34 12.9 33.1 12 32 12H28Z" fill="white"/>
</svg>
