<svg width="40" height="40" viewBox="0 0 40 40" fill="none" xmlns="http://www.w3.org/2000/svg">
<path fill-rule="evenodd" clip-rule="evenodd" d="M20 6.57C21.9521 4.76136 24.5138 3.7545 27.175 3.75C30.0517 3.75 32.7983 4.93333 34.8083 7.01667C36.8085 9.10167 37.9226 11.8808 37.9167 14.77C37.9226 17.6592 36.8085 20.4383 34.8083 22.5233C33.4817 23.8983 32.1567 25.3067 30.825 26.72C28.1183 29.5933 25.3833 32.4983 22.5417 35.2333L22.5367 35.24C21.8311 35.9082 20.8903 36.2709 19.9188 36.2494C18.9473 36.2278 18.0236 35.8238 17.3483 35.125L5.18999 22.5233C1.04832 18.2283 1.04832 11.3117 5.18999 7.01833C7.10433 5.01235 9.73146 3.84067 12.503 3.75676C15.2746 3.67286 17.9678 4.68348 20 6.57Z" fill="white"/>
</svg>
