<svg width="40" height="40" viewBox="0 0 40 40" fill="none" xmlns="http://www.w3.org/2000/svg">
<g clip-path="url(#clip0_67_188)">
<path d="M6.66667 25C7.10869 25 7.53262 25.1756 7.84518 25.4882C8.15774 25.8007 8.33333 26.2246 8.33333 26.6667V31.6667H13.3333C13.7754 31.6667 14.1993 31.8423 14.5118 32.1548C14.8244 32.4674 15 32.8913 15 33.3333C15 33.7754 14.8244 34.1993 14.5118 34.5118C14.1993 34.8244 13.7754 35 13.3333 35H8.33333C7.44928 35 6.60143 34.6488 5.97631 34.0237C5.35119 33.3986 5 32.5507 5 31.6667V26.6667C5 26.2246 5.17559 25.8007 5.48816 25.4882C5.80072 25.1756 6.22464 25 6.66667 25ZM33.3333 25C33.7416 25.0001 34.1356 25.1499 34.4406 25.4212C34.7457 25.6925 34.9406 26.0662 34.9883 26.4717L35 26.6667V31.6667C35.0003 32.5076 34.6827 33.3176 34.1108 33.9342C33.539 34.5509 32.7553 34.9286 31.9167 34.9917L31.6667 35H26.6667C26.2419 34.9995 25.8333 34.8369 25.5244 34.5453C25.2155 34.2536 25.0296 33.8551 25.0047 33.431C24.9798 33.0069 25.1178 32.5894 25.3904 32.2636C25.6631 31.9379 26.0498 31.7285 26.4717 31.6783L26.6667 31.6667H31.6667V26.6667C31.6667 26.2246 31.8423 25.8007 32.1548 25.4882C32.4674 25.1756 32.8913 25 33.3333 25ZM31.6667 5C32.5076 4.99973 33.3176 5.31734 33.9342 5.88916C34.5509 6.46098 34.9286 7.24474 34.9917 8.08333L35 8.33333V13.3333C34.9995 13.7581 34.8369 14.1667 34.5453 14.4756C34.2536 14.7845 33.8551 14.9704 33.431 14.9953C33.0069 15.0202 32.5894 14.8822 32.2636 14.6096C31.9379 14.3369 31.7285 13.9502 31.6783 13.5283L31.6667 13.3333V8.33333H26.6667C26.2419 8.33286 25.8333 8.1702 25.5244 7.87859C25.2155 7.58697 25.0296 7.18841 25.0047 6.76434C24.9798 6.34027 25.1178 5.9227 25.3904 5.59695C25.6631 5.27119 26.0498 5.06184 26.4717 5.01167L26.6667 5H31.6667ZM13.3333 5C13.7581 5.00047 14.1667 5.16313 14.4756 5.45475C14.7845 5.74636 14.9704 6.14492 14.9953 6.56899C15.0202 6.99306 14.8822 7.41063 14.6096 7.73639C14.3369 8.06214 13.9502 8.27149 13.5283 8.32167L13.3333 8.33333H8.33333V13.3333C8.33286 13.7581 8.1702 14.1667 7.87859 14.4756C7.58697 14.7845 7.18841 14.9704 6.76434 14.9953C6.34027 15.0202 5.9227 14.8822 5.59695 14.6096C5.27119 14.3369 5.06184 13.9502 5.01167 13.5283L5 13.3333V8.33333C4.99973 7.49237 5.31734 6.68239 5.88916 6.06575C6.46098 5.44912 7.24474 5.07141 8.08333 5.00833L8.33333 5H13.3333Z" fill="white"/>
</g>
<defs>
<clipPath id="clip0_67_188">
<rect width="40" height="40" fill="white"/>
</clipPath>
</defs>
</svg>
