<svg width="33" height="30" viewBox="0 0 33 30" fill="none" xmlns="http://www.w3.org/2000/svg">
<path d="M3.16463 28.752C3.16463 29.0836 3.03293 29.4015 2.79852 29.6359C2.56409 29.8703 2.24615 30.002 1.91463 30.002C1.58311 30.002 1.26517 29.8703 1.03075 29.6359C0.796326 29.4015 0.664631 29.0836 0.664631 28.752L0.664631 1.25205C0.664631 0.920527 0.796326 0.602583 1.03075 0.368162C1.26517 0.133743 1.58311 0.00204849 1.91463 0.00204849C2.24615 0.00204849 2.56409 0.133743 2.79852 0.368162C3.03293 0.602583 3.16463 0.920527 3.16463 1.25205L3.16463 28.752ZM13.563 29.4854C11.6263 30.812 8.99629 29.427 8.99629 27.0804L8.99629 2.92205C8.99629 0.567049 11.6463 -0.817951 13.5796 0.527048L31.0763 12.697C31.4638 12.9667 31.7801 13.3263 31.998 13.7451C32.2159 14.1639 32.3289 14.6293 32.3273 15.1014C32.3256 15.5735 32.2094 16.0381 31.9886 16.4554C31.7678 16.8727 31.449 17.2301 31.0596 17.497L13.5646 29.487L13.563 29.4854Z" fill="white"/>
</svg>
