<svg width="40" height="40" viewBox="0 0 40 40" fill="none" xmlns="http://www.w3.org/2000/svg">
<g clip-path="url(#clip0_65_186)">
<path d="M0.557368 0.557962C0.874931 0.239816 1.29624 0.0463675 1.7445 0.0128738C2.19277 -0.0206199 2.63814 0.108071 2.99946 0.375493L3.20943 0.557962L39.4434 36.7894L39.6233 36.9994C39.8925 37.3603 40.0227 37.806 39.9903 38.255C39.9578 38.7041 39.7649 39.1264 39.4467 39.4449C39.1285 39.7634 38.7063 39.9568 38.2573 39.9897C37.8083 40.0225 37.3625 39.8927 37.0013 39.6239L36.7913 39.4415L29.66 32.3127C29.1886 32.394 28.7129 32.4483 28.2352 32.4751L27.5054 32.4976L16.4022 32.4951L19.4517 35.5446C19.7695 35.8625 19.9625 36.284 19.9955 36.7322C20.0285 37.1805 19.8994 37.6257 19.6317 37.9867L19.4517 38.1967C19.1342 38.5148 18.7128 38.7083 18.2646 38.7418C17.8163 38.7753 17.3709 38.6466 17.0096 38.3792L16.7997 38.1967L10.5507 31.9477C10.2336 31.63 10.041 31.209 10.008 30.7613C9.97495 30.3136 10.1037 29.869 10.3707 29.5081L10.5507 29.2957L16.7997 23.0467C17.1342 22.7113 17.5833 22.5149 18.0566 22.4971C18.53 22.4793 18.9926 22.6414 19.3513 22.9508C19.7101 23.2601 19.9384 23.6938 19.9904 24.1647C20.0424 24.6355 19.9143 25.1086 19.6317 25.4888L19.4517 25.6988L16.3997 28.7483H26.0906L9.23092 11.8811C7.68676 12.502 6.35175 13.5505 5.38258 14.9035C4.41342 16.2566 3.8503 17.858 3.75933 19.5198L3.74684 19.9997C3.74684 22.7068 4.97663 25.1264 6.90881 26.7311C7.25061 27.072 7.44773 27.5317 7.45909 28.0143C7.47045 28.4969 7.29519 28.9653 6.96981 29.322C6.64443 29.6786 6.19401 29.8959 5.71237 29.9288C5.23072 29.9616 4.75498 29.8073 4.38423 29.4981C2.85082 28.1884 1.65711 26.5271 0.905016 24.656C0.152918 22.7849 -0.135235 20.7595 0.0651579 18.7529C0.26555 16.7463 0.948536 14.818 2.05581 13.1325C3.16308 11.4471 4.66176 10.0547 6.42389 9.07404L0.554868 3.20752L0.374898 2.99756C0.107839 2.63673 -0.0208779 2.19205 0.0121484 1.74436C0.0451747 1.29667 0.240251 0.875694 0.557368 0.557962ZM34.3742 10.0264C34.8217 10.0264 35.2316 10.1839 35.554 10.4463C36.9492 11.6164 38.0708 13.0783 38.8395 14.7289C39.6083 16.3796 40.0055 18.1788 40.0033 19.9997C40.0033 23.7991 38.3086 27.201 35.634 29.4931L32.9695 26.8311C33.9942 26.0116 34.8214 24.9721 35.39 23.7896C35.9585 22.6071 36.2538 21.3118 36.2539 19.9997C36.2539 17.3002 35.0291 14.8831 33.1044 13.2758C32.8277 13.0202 32.6343 12.6872 32.5496 12.3201C32.4649 11.953 32.4927 11.5689 32.6295 11.2179C32.7663 10.8668 33.0057 10.5652 33.3165 10.3522C33.6273 10.1392 33.995 10.0248 34.3717 10.0239M20.549 1.80026C20.8665 1.48276 21.2873 1.28973 21.735 1.25624C22.1827 1.22275 22.6275 1.35105 22.9886 1.61779L23.1986 1.79776L29.4475 8.04671L29.6275 8.25918C29.8633 8.57742 29.9923 8.96218 29.9959 9.35824C29.9995 9.75431 29.8775 10.1413 29.6475 10.4638L29.4475 10.6988L23.1986 16.9477L23.1361 17.0002L20.494 14.3582L20.5465 14.2957L23.5985 11.2512H17.3821L13.6327 7.5018H23.596L20.549 4.45231L20.3691 4.24235C20.1013 3.88132 19.9722 3.43612 20.0052 2.98786C20.0383 2.5396 20.2313 2.11813 20.549 1.80026Z" fill="white"/>
</g>
<defs>
<clipPath id="clip0_65_186">
<rect width="40" height="40" fill="white"/>
</clipPath>
</defs>
</svg>
