<svg width="20" height="26" viewBox="0 0 20 26" fill="none" xmlns="http://www.w3.org/2000/svg">
<path d="M5 0.5H2.5C1.83696 0.5 1.20107 0.763392 0.732234 1.23223C0.263393 1.70107 0 2.33696 0 3V23C0 23.663 0.263393 24.2989 0.732234 24.7678C1.20107 25.2366 1.83696 25.5 2.5 25.5H5C5.66304 25.5 6.29893 25.2366 6.76777 24.7678C7.23661 24.2989 7.5 23.663 7.5 23V3C7.5 2.33696 7.23661 1.70107 6.76777 1.23223C6.29893 0.763392 5.66304 0.5 5 0.5ZM17.5 0.5H15C14.337 0.5 13.7011 0.763392 13.2322 1.23223C12.7634 1.70107 12.5 2.33696 12.5 3V23C12.5 23.663 12.7634 24.2989 13.2322 24.7678C13.7011 25.2366 14.337 25.5 15 25.5H17.5C18.163 25.5 18.7989 25.2366 19.2678 24.7678C19.7366 24.2989 20 23.663 20 23V3C20 2.33696 19.7366 1.70107 19.2678 1.23223C18.7989 0.763392 18.163 0.5 17.5 0.5Z" fill="white"/>
</svg>
