<svg width="40" height="40" viewBox="0 0 40 40" fill="none" xmlns="http://www.w3.org/2000/svg">
<path d="M8.46548 37.3621C7.8898 37.361 7.3243 37.2101 6.82463 36.9242C5.69947 36.2867 5 35.049 5 33.7054V6.51407C5 5.1667 5.69947 3.93277 6.82463 3.29519C7.3362 3.00118 7.91736 2.84999 8.50735 2.85741C9.09735 2.86483 9.67452 3.0306 10.1785 3.33738L33.4177 17.2481C33.902 17.5518 34.3013 17.9735 34.5781 18.4737C34.8548 18.9739 35 19.5362 35 20.1078C35 20.6795 34.8548 21.2418 34.5781 21.742C34.3013 22.2422 33.902 22.6639 33.4177 22.9676L10.1748 36.8821C9.65899 37.1939 9.06821 37.3598 8.46548 37.3621Z" fill="white"/>
</svg>
