<svg width="33" height="30" viewBox="0 0 33 30" fill="none" xmlns="http://www.w3.org/2000/svg">
<path d="M29.8333 1.25C29.8333 0.918479 29.965 0.600537 30.1994 0.366116C30.4339 0.131696 30.7518 0 31.0833 0C31.4149 0 31.7328 0.131696 31.9672 0.366116C32.2016 0.600537 32.3333 0.918479 32.3333 1.25V28.75C32.3333 29.0815 32.2016 29.3995 31.9672 29.6339C31.7328 29.8683 31.4149 30 31.0833 30C30.7518 30 30.4339 29.8683 30.1994 29.6339C29.965 29.3995 29.8333 29.0815 29.8333 28.75V1.25ZM19.435 0.516667C21.3717 -0.81 24.0017 0.575 24.0017 2.92167V27.08C24.0017 29.435 21.3517 30.82 19.4183 29.475L1.92167 17.305C1.53413 17.0354 1.21784 16.6757 0.999945 16.2569C0.782051 15.8381 0.669071 15.3727 0.670711 14.9006C0.67235 14.4285 0.788558 13.9639 1.00936 13.5466C1.23015 13.1294 1.54894 12.7719 1.93833 12.505L19.4333 0.515L19.435 0.516667Z" fill="white"/>
</svg>
