<svg width="30" height="28" viewBox="0 0 30 28" fill="none" xmlns="http://www.w3.org/2000/svg">
<path d="M1.25 14H28.75M1.25 20.25H28.75M1.25 26.5H28.75M4.375 1.5H25.625C26.4538 1.5 27.2487 1.82924 27.8347 2.41529C28.4208 3.00134 28.75 3.7962 28.75 4.625C28.75 5.4538 28.4208 6.24866 27.8347 6.83471C27.2487 7.42076 26.4538 7.75 25.625 7.75H4.375C3.5462 7.75 2.75134 7.42076 2.16529 6.83471C1.57924 6.24866 1.25 5.4538 1.25 4.625C1.25 3.7962 1.57924 3.00134 2.16529 2.41529C2.75134 1.82924 3.5462 1.5 4.375 1.5Z" stroke="white" stroke-width="2.5" stroke-linecap="round" stroke-linejoin="round"/>
</svg>
