<svg width="40" height="40" viewBox="0 0 40 40" fill="none" xmlns="http://www.w3.org/2000/svg">
<g clip-path="url(#clip0_11_70)">
<path fill-rule="evenodd" clip-rule="evenodd" d="M13.4326 2.26788C13.6942 2.00657 14.0488 1.8598 14.4186 1.8598C14.7884 1.8598 15.143 2.00657 15.4047 2.26788L19.1256 5.98881C19.3205 6.18395 19.4532 6.43246 19.5069 6.70297C19.5607 6.97348 19.533 7.25385 19.4275 7.50867C19.322 7.76348 19.1433 7.98131 18.9141 8.13465C18.6849 8.28799 18.4153 8.36996 18.1395 8.3702H14.4186C11.3347 8.3702 8.37709 9.59528 6.19643 11.7759C4.01578 13.9566 2.7907 16.9142 2.7907 19.9981C2.7907 23.082 4.01578 26.0396 6.19643 28.2203C8.37709 30.4009 11.3347 31.626 14.4186 31.626H15.3488C15.7189 31.626 16.0738 31.773 16.3355 32.0347C16.5972 32.2964 16.7442 32.6513 16.7442 33.0214C16.7442 33.3914 16.5972 33.7464 16.3355 34.008C16.0738 34.2697 15.7189 34.4167 15.3488 34.4167H14.4186C10.5946 34.4167 6.92712 32.8976 4.22311 30.1936C1.5191 27.4896 0 23.8222 0 19.9981C0 16.1741 1.5191 12.5066 4.22311 9.80262C6.92712 7.0986 10.5946 5.57951 14.4186 5.57951H14.7721L13.4326 4.23997C13.1713 3.97834 13.0245 3.62369 13.0245 3.25392C13.0245 2.88415 13.1713 2.52951 13.4326 2.26788ZM23.2558 6.97485C23.2558 6.60478 23.4028 6.24987 23.6645 5.98819C23.9262 5.72651 24.2811 5.57951 24.6512 5.57951H25.5814C29.4054 5.57951 33.0729 7.0986 35.7769 9.80262C38.4809 12.5066 40 16.1741 40 19.9981C40 23.8222 38.4809 27.4896 35.7769 30.1936C33.0729 32.8976 29.4054 34.4167 25.5814 34.4167H25.2279L26.5674 35.7563C26.7045 35.884 26.8145 36.038 26.8908 36.2092C26.967 36.3804 27.008 36.5651 27.0113 36.7525C27.0146 36.9398 26.9802 37.1259 26.91 37.2997C26.8398 37.4734 26.7354 37.6313 26.6029 37.7638C26.4704 37.8963 26.3125 38.0007 26.1388 38.0709C25.965 38.1411 25.7789 38.1755 25.5916 38.1722C25.4042 38.1689 25.2195 38.1279 25.0483 38.0517C24.8771 37.9754 24.7231 37.8654 24.5954 37.7283L20.8744 34.0074C20.6795 33.8123 20.5468 33.5638 20.4931 33.2932C20.4393 33.0227 20.467 32.7424 20.5725 32.4876C20.678 32.2327 20.8567 32.0149 21.0859 31.8616C21.3151 31.7082 21.5847 31.6263 21.8605 31.626H25.5814C28.6653 31.626 31.6229 30.4009 33.8036 28.2203C35.9842 26.0396 37.2093 23.082 37.2093 19.9981C37.2093 16.9142 35.9842 13.9566 33.8036 11.7759C31.6229 9.59528 28.6653 8.3702 25.5814 8.3702H24.6512C24.2811 8.3702 23.9262 8.22319 23.6645 7.96151C23.4028 7.69984 23.2558 7.34492 23.2558 6.97485ZM20.534 14.9879C20.789 15.0935 21.0069 15.2724 21.1602 15.5019C21.3136 15.7314 21.3954 16.0012 21.3953 16.2772V23.719C21.3953 24.0891 21.2483 24.444 20.9867 24.7057C20.725 24.9674 20.3701 25.1144 20 25.1144C19.6299 25.1144 19.275 24.9674 19.0133 24.7057C18.7517 24.444 18.6047 24.0891 18.6047 23.719V19.6446L18.1953 20.0539C18.0676 20.191 17.9136 20.301 17.7424 20.3772C17.5712 20.4535 17.3865 20.4945 17.1991 20.4978C17.0118 20.5011 16.8257 20.4667 16.6519 20.3965C16.4782 20.3263 16.3203 20.2218 16.1878 20.0893C16.0553 19.9568 15.9509 19.799 15.8807 19.6253C15.8105 19.4515 15.7761 19.2654 15.7794 19.0781C15.7827 18.8907 15.8237 18.7059 15.8999 18.5348C15.9762 18.3636 16.0862 18.2096 16.2233 18.0818L19.014 15.2911C19.209 15.096 19.4574 14.963 19.728 14.909C19.9985 14.8551 20.279 14.8825 20.534 14.9879Z" fill="white"/>
</g>
<defs>
<clipPath id="clip0_11_70">
<rect width="40" height="40" fill="white"/>
</clipPath>
</defs>
</svg>
