<svg width="36" height="34" viewBox="0 0 36 34" fill="none" xmlns="http://www.w3.org/2000/svg">
<path fill-rule="evenodd" clip-rule="evenodd" d="M12.1167 1.11667C12.351 0.882581 12.6688 0.751099 13 0.751099C13.3313 0.751099 13.649 0.882581 13.8833 1.11667L17.2167 4.45C17.3913 4.62481 17.5101 4.84744 17.5583 5.08977C17.6064 5.3321 17.5817 5.58327 17.4871 5.81154C17.3926 6.03981 17.2326 6.23495 17.0272 6.37232C16.8219 6.50969 16.5804 6.58311 16.3333 6.58333H13C10.2373 6.58333 7.58781 7.6808 5.63431 9.6343C3.6808 11.5878 2.58334 14.2373 2.58334 17C2.58334 19.7627 3.6808 22.4122 5.63431 24.3657C7.58781 26.3192 10.2373 27.4167 13 27.4167H13.8333C14.1649 27.4167 14.4828 27.5484 14.7172 27.7828C14.9516 28.0172 15.0833 28.3351 15.0833 28.6667C15.0833 28.9982 14.9516 29.3161 14.7172 29.5505C14.4828 29.785 14.1649 29.9167 13.8333 29.9167H13C9.57429 29.9167 6.28888 28.5558 3.86654 26.1335C1.4442 23.7111 0.0833359 20.4257 0.0833359 17C0.0833359 13.5743 1.4442 10.2889 3.86654 7.86654C6.28888 5.44419 9.57429 4.08333 13 4.08333H13.3167L12.1167 2.88333C11.8826 2.64896 11.7511 2.33125 11.7511 2C11.7511 1.66875 11.8826 1.35104 12.1167 1.11667ZM20.9167 5.33333C20.9167 5.00181 21.0484 4.68387 21.2828 4.44945C21.5172 4.21503 21.8351 4.08333 22.1667 4.08333H23C26.4257 4.08333 29.7111 5.44419 32.1335 7.86654C34.5558 10.2889 35.9167 13.5743 35.9167 17C35.9167 20.4257 34.5558 23.7111 32.1335 26.1335C29.7111 28.5558 26.4257 29.9167 23 29.9167H22.6833L23.8833 31.1167C24.0061 31.2311 24.1047 31.3691 24.173 31.5224C24.2413 31.6758 24.278 31.8413 24.281 32.0091C24.2839 32.177 24.2531 32.3437 24.1902 32.4993C24.1273 32.655 24.0338 32.7964 23.9151 32.9151C23.7964 33.0338 23.655 33.1273 23.4993 33.1902C23.3437 33.2531 23.177 33.2839 23.0091 33.281C22.8413 33.278 22.6758 33.2413 22.5224 33.173C22.3691 33.1046 22.2311 33.0061 22.1167 32.8833L18.7833 29.55C18.6087 29.3752 18.4899 29.1526 18.4417 28.9102C18.3936 28.6679 18.4183 28.4167 18.5129 28.1885C18.6074 27.9602 18.7674 27.765 18.9728 27.6277C19.1781 27.4903 19.4196 27.4169 19.6667 27.4167H23C25.7627 27.4167 28.4122 26.3192 30.3657 24.3657C32.3192 22.4122 33.4167 19.7627 33.4167 17C33.4167 14.2373 32.3192 11.5878 30.3657 9.6343C28.4122 7.6808 25.7627 6.58333 23 6.58333H22.1667C21.8351 6.58333 21.5172 6.45164 21.2828 6.21722C21.0484 5.9828 20.9167 5.66485 20.9167 5.33333Z" fill="white"/>
</svg>
