<svg width="30" height="34" viewBox="0 0 30 34" fill="none" xmlns="http://www.w3.org/2000/svg">
<path fill-rule="evenodd" clip-rule="evenodd" d="M18.75 6.16666C18.7501 4.90114 19.1934 3.67561 20.0028 2.70277C20.8122 1.72994 21.9366 1.07121 23.181 0.84093C24.4254 0.610649 25.7112 0.823349 26.8151 1.44211C27.919 2.06087 28.7715 3.04664 29.2245 4.22831C29.6774 5.40998 29.7024 6.71296 29.2949 7.9111C28.8875 9.10923 28.0734 10.1269 26.9939 10.7874C25.9145 11.448 24.6378 11.7097 23.3855 11.5272C22.1332 11.3447 20.9844 10.7295 20.1383 9.78832L15.61 12.2583L10.5433 15.1533C11.2517 16.4001 11.4375 17.8766 11.06 19.26L20.1383 24.2117C21.0265 23.2248 22.2462 22.5986 23.5657 22.4519C24.8852 22.3051 26.2127 22.6481 27.296 23.4157C28.3793 24.1832 29.1429 25.3219 29.4419 26.6154C29.7409 27.909 29.5544 29.2673 28.9179 30.4324C28.2813 31.5975 27.239 32.4882 25.989 32.9355C24.7389 33.3827 23.3681 33.3552 22.137 32.8583C20.9058 32.3613 19.9001 31.4295 19.3107 30.2399C18.7213 29.0502 18.5894 27.6855 18.94 26.405L9.86168 21.455C9.1698 22.2245 8.27197 22.7798 7.27441 23.055C6.27686 23.3303 5.22133 23.314 4.23273 23.0082C3.24413 22.7023 2.36383 22.1197 1.69599 21.3292C1.02815 20.5387 0.60072 19.5734 0.464282 18.5476C0.327843 17.5218 0.488104 16.4784 0.9261 15.5409C1.3641 14.6033 2.0615 13.8108 2.93578 13.2572C3.81007 12.7035 4.82465 12.4119 5.85947 12.4169C6.89429 12.4218 7.90604 12.7231 8.77501 13.285L14.3917 10.075L18.94 7.59333C18.8136 7.12832 18.7497 6.64854 18.75 6.16666ZM24.1667 3.24999C23.7837 3.24999 23.4044 3.32543 23.0505 3.47201C22.6967 3.61859 22.3751 3.83343 22.1043 4.10426C21.8334 4.3751 21.6186 4.69663 21.472 5.0505C21.3255 5.40437 21.25 5.78364 21.25 6.16666C21.25 6.54968 21.3255 6.92895 21.472 7.28282C21.6186 7.63668 21.8334 7.95822 22.1043 8.22905C22.3751 8.49989 22.6967 8.71473 23.0505 8.86131C23.4044 9.00788 23.7837 9.08333 24.1667 9.08333C24.9402 9.08332 25.6821 8.77603 26.2291 8.22905C26.7761 7.68207 27.0833 6.94021 27.0833 6.16666C27.0833 5.39311 26.7761 4.65125 26.2291 4.10426C25.6821 3.55728 24.9402 3.24999 24.1667 3.24999ZM5.83335 14.9167C5.0598 14.9167 4.31793 15.2239 3.77095 15.7709C3.22397 16.3179 2.91668 17.0598 2.91668 17.8333C2.91668 18.6069 3.22397 19.3487 3.77095 19.8957C4.31793 20.4427 5.0598 20.75 5.83335 20.75C6.60689 20.75 7.34876 20.4427 7.89574 19.8957C8.44272 19.3487 8.75001 18.6069 8.75001 17.8333C8.75001 17.0598 8.44272 16.3179 7.89574 15.7709C7.34876 15.2239 6.60689 14.9167 5.83335 14.9167ZM21.25 27.8333C21.25 27.0598 21.5573 26.3179 22.1043 25.7709C22.6513 25.2239 23.3931 24.9167 24.1667 24.9167C24.9402 24.9167 25.6821 25.2239 26.2291 25.7709C26.7761 26.3179 27.0833 27.0598 27.0833 27.8333C27.0833 28.6069 26.7761 29.3487 26.2291 29.8957C25.6821 30.4427 24.9402 30.75 24.1667 30.75C23.3931 30.75 22.6513 30.4427 22.1043 29.8957C21.5573 29.3487 21.25 28.6069 21.25 27.8333Z" fill="white"/>
</svg>
