<svg width="31" height="28" viewBox="0 0 31 28" fill="none" xmlns="http://www.w3.org/2000/svg">
<path fill-rule="evenodd" clip-rule="evenodd" d="M30.112 4.34001C29.9027 4.17765 29.6374 4.105 29.3746 4.13799C29.1117 4.17099 28.8727 4.30695 28.71 4.51601L25.71 8.38801C25.6238 8.49117 25.5593 8.61065 25.5204 8.7393C25.4814 8.86795 25.4688 9.00314 25.4833 9.13678C25.4977 9.27042 25.539 9.39977 25.6046 9.5171C25.6702 9.63443 25.7588 9.73733 25.865 9.81965C25.9713 9.90198 26.0931 9.96203 26.2231 9.99622C26.3531 10.0304 26.4886 10.0381 26.6216 10.0187C26.7547 9.99928 26.8824 9.95328 26.9972 9.88341C27.1121 9.81354 27.2116 9.72123 27.29 9.61201L30.29 5.74201C30.3706 5.63817 30.4299 5.51946 30.4646 5.39267C30.4993 5.26588 30.5086 5.13351 30.4921 5.0031C30.4755 4.8727 30.4335 4.74684 30.3682 4.63272C30.303 4.5186 30.216 4.42045 30.112 4.34001ZM30.112 23.79C29.9024 23.9521 29.637 24.0245 29.3742 23.9911C29.1113 23.9577 28.8724 23.8214 28.71 23.612L25.71 19.742C25.6277 19.6384 25.5668 19.5196 25.5308 19.3923C25.4948 19.265 25.4843 19.1318 25.5001 19.0005C25.516 18.8691 25.5577 18.7422 25.6229 18.6271C25.688 18.512 25.7754 18.411 25.8799 18.3299C25.9845 18.2488 26.104 18.1893 26.2317 18.1547C26.3594 18.1201 26.4927 18.1113 26.6238 18.1286C26.755 18.1459 26.8814 18.189 26.9957 18.2555C27.1101 18.322 27.2101 18.4106 27.29 18.516L30.29 22.388C30.4521 22.5976 30.5245 22.863 30.4911 23.1258C30.4577 23.3887 30.3214 23.6276 30.112 23.79Z" fill="white"/>
<path fill-rule="evenodd" clip-rule="evenodd" d="M25.9 0.200004C25.7949 0.278797 25.7064 0.377512 25.6395 0.490511C25.5726 0.60351 25.5286 0.728581 25.51 0.858583C25.4915 0.988585 25.4987 1.12097 25.5313 1.24819C25.5639 1.3754 25.6212 1.49495 25.7 1.6L28.7 5.6C28.7788 5.70506 28.8775 5.79357 28.9905 5.86048C29.1035 5.92739 29.2286 5.97138 29.3586 5.98995C29.4886 6.00853 29.621 6.00131 29.7482 5.96872C29.8754 5.93613 29.9949 5.8788 30.1 5.8C30.2051 5.72121 30.2936 5.6225 30.3605 5.5095C30.4274 5.3965 30.4714 5.27143 30.4899 5.14143C30.5085 5.01142 30.5013 4.87904 30.4687 4.75182C30.4361 4.62461 30.3788 4.50506 30.3 4.4L27.3 0.400004C27.1409 0.187831 26.904 0.0475619 26.6414 0.0100546C26.3789 -0.0274527 26.1122 0.0408742 25.9 0.200004ZM25.9 27.8C25.7949 27.7212 25.7064 27.6225 25.6395 27.5095C25.5726 27.3965 25.5286 27.2714 25.51 27.1414C25.4915 27.0114 25.4987 26.879 25.5313 26.7518C25.5639 26.6246 25.6212 26.5051 25.7 26.4L28.7 22.4C28.7788 22.2949 28.8775 22.2064 28.9905 22.1395C29.1035 22.0726 29.2286 22.0286 29.3586 22.0101C29.4886 21.9915 29.621 21.9987 29.7482 22.0313C29.8754 22.0639 29.9949 22.1212 30.1 22.2C30.2051 22.2788 30.2936 22.3775 30.3605 22.4905C30.4274 22.6035 30.4714 22.7286 30.4899 22.8586C30.5085 22.9886 30.5013 23.121 30.4687 23.2482C30.4361 23.3754 30.3788 23.4949 30.3 23.6L27.3 27.6C27.1409 27.8122 26.904 27.9524 26.6414 27.99C26.3789 28.0275 26.1122 27.9591 25.9 27.8ZM0.5 5C0.5 4.73479 0.605357 4.48043 0.792893 4.2929C0.98043 4.10536 1.23478 4 1.5 4C5.092 4 8.384 5.062 10.8 6.828C13.22 8.594 14.82 11.12 14.82 14C14.82 16.882 13.22 19.406 10.8 21.172C8.386 22.938 5.094 24 1.5 24C1.23478 24 0.98043 23.8946 0.792893 23.7071C0.605357 23.5196 0.5 23.2652 0.5 23C0.5 22.7348 0.605357 22.4804 0.792893 22.2929C0.98043 22.1054 1.23478 22 1.5 22C4.712 22 7.58 21.048 9.62 19.556C11.664 18.066 12.82 16.088 12.82 14C12.82 11.912 11.664 9.934 9.62 8.44401C7.58 6.952 4.714 6 1.5 6C1.23478 6 0.98043 5.89465 0.792893 5.70711C0.605357 5.51957 0.5 5.26522 0.5 5Z" fill="white"/>
<path fill-rule="evenodd" clip-rule="evenodd" d="M29 5C29 4.73478 28.8946 4.48043 28.7071 4.29289C28.5196 4.10536 28.2652 4 28 4H25.75C22.304 4 19.15 5.068 16.834 6.842C14.516 8.616 13 11.14 13 14C13 16.86 14.516 19.384 16.834 21.158C19.148 22.932 22.304 24 25.75 24H28C28.2652 24 28.5196 23.8946 28.7071 23.7071C28.8946 23.5196 29 23.2652 29 23C29 22.7348 28.8946 22.4804 28.7071 22.2929C28.5196 22.1054 28.2652 22 28 22H25.75C22.706 22 19.986 21.054 18.05 19.57C16.114 18.088 15 16.11 15 14C15 11.892 16.114 9.912 18.05 8.43C19.986 6.946 22.706 6 25.75 6H28C28.2652 6 28.5196 5.89464 28.7071 5.70711C28.8946 5.51957 29 5.26522 29 5Z" fill="white"/>
</svg>
