<svg width="26" height="20" viewBox="0 0 26 20" fill="none" xmlns="http://www.w3.org/2000/svg">
<path d="M4.51465 18.4853C3.40033 17.371 2.5164 16.0481 1.91334 14.5922C1.31027 13.1363 0.999878 11.5759 0.999878 10C0.999878 8.42412 1.31027 6.86368 1.91334 5.40776C2.5164 3.95184 3.40033 2.62897 4.51465 1.51466M21.4853 1.51466C22.5996 2.62897 23.4836 3.95184 24.0866 5.40776C24.6897 6.86368 25.0001 8.42412 25.0001 10C25.0001 11.5759 24.6897 13.1363 24.0866 14.5922C23.4836 16.0481 22.5996 17.371 21.4853 18.4853M7.81465 15.1853C6.43945 13.8101 5.66688 11.9449 5.66688 10C5.66688 8.05513 6.43945 6.18992 7.81465 4.81466M18.1853 4.81466C19.5605 6.18992 20.3331 8.05513 20.3331 10C20.3331 11.9449 19.5605 13.8101 18.1853 15.1853M15.6666 10C15.6666 10.7072 15.3857 11.3855 14.8856 11.8856C14.3855 12.3857 13.7072 12.6667 13 12.6667C12.2927 12.6667 11.6145 12.3857 11.1144 11.8856C10.6143 11.3855 10.3333 10.7072 10.3333 10C10.3333 9.29275 10.6143 8.61448 11.1144 8.11438C11.6145 7.61428 12.2927 7.33333 13 7.33333C13.7072 7.33333 14.3855 7.61428 14.8856 8.11438C15.3857 8.61448 15.6666 9.29275 15.6666 10Z" stroke="white" stroke-width="1.5" stroke-linecap="round" stroke-linejoin="round"/>
</svg>
